Coordinates
version=1
nRows=27
nColumns=38
inDegrees=no

Units are S.I. units (second, meters, Newtons, ...)
If the header above contains a line with 'inDegrees', this indicates whether rotational values are in degrees (yes) or radians (no).

endheader
time	pelvis_tilt	pelvis_list	pelvis_rotation	pelvis_tx	pelvis_ty	pelvis_tz	hip_flexion_r	hip_adduction_r	hip_rotation_r	knee_angle_r	ankle_angle_r	subtalar_angle_r	mtp_angle_r	hip_flexion_l	hip_adduction_l	hip_rotation_l	knee_angle_l	ankle_angle_l	subtalar_angle_l	mtp_angle_l	lumbar_extension	lumbar_bending	lumbar_rotation	arm_flex_r	arm_add_r	arm_rot_r	elbow_flex_r	pro_sup_r	wrist_flex_r	wrist_dev_r	arm_flex_l	arm_add_l	arm_rot_l	elbow_flex_l	pro_sup_l	wrist_flex_l	wrist_dev_l
1.05	0.801008	1.41484	-2.50052	0.948612	0.0670786	0.946062	0.153399	-0.250177	0.013394	1.25402	-0.279872	0	0	0.170207	0.114793	-0.355083	0.361659	0.0459408	0	0	-0.161638	-0.182348	-0.0382068	-0.32591	-0.0101674	-0.550513	0.451883	1.12227	0	0	-0.215682	-0.44174	0.479927	0.691239	0.500218	0	0
1.06	0.769116	1.41438	-2.46315	0.950244	0.0585744	0.947914	0.174463	-0.243658	0.0167979	1.28624	-0.252871	0	0	0.150102	0.118002	-0.345596	0.351892	0.050802	0	0	-0.167511	-0.179278	-0.0453479	-0.322071	-0.0110877	-0.551577	0.448628	1.12329	0	0	-0.213574	-0.441625	0.479704	0.688759	0.500427	0	0
1.07	0.732351	1.4158	-2.41926	0.951974	0.0502515	0.949805	0.194555	-0.235124	0.0166629	1.31228	-0.221547	0	0	0.131084	0.11864	-0.335187	0.342225	0.0551073	0	0	-0.172806	-0.173634	-0.053704	-0.318455	-0.012402	-0.552233	0.445007	1.1241	0	0	-0.211281	-0.441338	0.479665	0.686734	0.50062	0	0
1.08	0.693228	1.4183	-2.37269	0.953727	0.042015	0.951676	0.214264	-0.225497	0.0149026	1.33226	-0.192673	0	0	0.112904	0.117531	-0.325086	0.332469	0.0588054	0	0	-0.177095	-0.166424	-0.0618179	-0.31562	-0.0140536	-0.552544	0.441706	1.12502	0	0	-0.208397	-0.440759	0.480925	0.68423	0.50049	0	0
1.09	0.655623	1.42135	-2.32725	0.955514	0.0338674	0.953454	0.234046	-0.215823	0.0122163	1.34673	-0.168743	0	0	0.0956261	0.11581	-0.31525	0.322305	0.0617063	0	0	-0.180515	-0.158679	-0.0696873	-0.313611	-0.0157725	-0.552314	0.43839	1.12771	0	0	-0.205636	-0.44043	0.482041	0.682961	0.501102	0	0
1.1	0.619814	1.42457	-2.28289	0.957359	0.0258395	0.95511	0.253528	-0.20639	0.00889537	1.35592	-0.149042	0	0	0.079022	0.114082	-0.305551	0.311593	0.0637593	0	0	-0.183459	-0.150821	-0.0779017	-0.312126	-0.0171565	-0.552632	0.435782	1.13267	0	0	-0.20264	-0.440315	0.483361	0.682474	0.501253	0	0
1.11	0.582776	1.42722	-2.23687	0.959235	0.0178992	0.956704	0.271601	-0.197294	0.00520347	1.35996	-0.132814	0	0	0.0619041	0.112501	-0.295973	0.300127	0.0652523	0	0	-0.186559	-0.1432	-0.0872399	-0.310468	-0.0183563	-0.552732	0.434468	1.1371	0	0	-0.200559	-0.440284	0.482928	0.68299	0.502047	0	0
1.12	0.544273	1.42909	-2.18939	0.961093	0.00999584	0.958235	0.288057	-0.188639	0.00154467	1.35899	-0.119476	0	0	0.0437293	0.111048	-0.287172	0.287389	0.0662463	0	0	-0.190013	-0.135899	-0.0973008	-0.308612	-0.0192237	-0.553391	0.434748	1.14116	0	0	-0.199637	-0.440215	0.480124	0.684525	0.503801	0	0
1.13	0.507055	1.4307	-2.1426	0.962987	0.00215581	0.95962	0.303373	-0.180753	-0.00270247	1.35324	-0.108701	0	0	0.0254584	0.109539	-0.278496	0.273984	0.0669575	0	0	-0.193267	-0.128753	-0.108585	-0.306371	-0.0196585	-0.555094	0.436139	1.14491	0	0	-0.199692	-0.440123	0.475343	0.686931	0.506118	0	0
1.14	0.469661	1.43197	-2.09505	0.964901	-0.0056532	0.960867	0.316957	-0.173685	-0.00814774	1.34284	-0.0994534	0	0	0.00728229	0.107816	-0.269098	0.260729	0.0677261	0	0	-0.196585	-0.121628	-0.120899	-0.303677	-0.0196202	-0.558109	0.438082	1.15137	0	0	-0.200366	-0.439797	0.468774	0.68945	0.510286	0	0
1.15	0.432276	1.43283	-2.04729	0.966771	-0.0134157	0.961984	0.328988	-0.167407	-0.0143151	1.32824	-0.0911342	0	0	-0.0107744	0.10573	-0.259495	0.24795	0.0688879	0	0	-0.20009	-0.114702	-0.133782	-0.30044	-0.0191169	-0.561292	0.440891	1.1595	0	0	-0.201301	-0.439405	0.46115	0.69185	0.515682	0	0
1.16	0.397423	1.43372	-2.00195	0.968595	-0.0210923	0.962928	0.340161	-0.161986	-0.0209865	1.30985	-0.083545	0	0	-0.02796	0.103348	-0.24963	0.235842	0.0706539	0	0	-0.20319	-0.108199	-0.146899	-0.296412	-0.0184119	-0.564	0.442981	1.16905	0	0	-0.20209	-0.439157	0.453753	0.694018	0.521735	0	0
1.17	0.365057	1.43454	-1.95912	0.970412	-0.0286966	0.963736	0.350041	-0.15719	-0.0279914	1.28775	-0.0753735	0	0	-0.0442282	0.100848	-0.239514	0.224573	0.0728586	0	0	-0.206007	-0.102122	-0.159994	-0.291593	-0.0177092	-0.565061	0.44429	1.17632	0	0	-0.202418	-0.438967	0.447249	0.695483	0.527464	0	0
1.18	0.336288	1.43552	-1.91998	0.9722	-0.0362309	0.964376	0.359182	-0.153197	-0.0352563	1.26243	-0.0656787	0	0	-0.059212	0.0984251	-0.229501	0.214249	0.0752746	0	0	-0.20834	-0.0965132	-0.172606	-0.28605	-0.0168901	-0.565203	0.44453	1.18153	0	0	-0.201743	-0.439014	0.442848	0.696059	0.532356	0	0
1.19	0.310363	1.43667	-1.884	0.973928	-0.0436907	0.964835	0.367527	-0.149694	-0.0425148	1.2341	-0.0546413	0	0	-0.0730754	0.0961191	-0.219914	0.204619	0.0779239	0	0	-0.21021	-0.0913387	-0.184041	-0.280298	-0.0159548	-0.564048	0.444208	1.18397	0	0	-0.199455	-0.439497	0.441804	0.695954	0.534722	0	0
1.2	0.288791	1.43769	-1.85301	0.975564	-0.0511694	0.965176	0.374678	-0.147047	-0.0495888	1.20279	-0.0427505	0	0	-0.0865766	0.0941954	-0.2103	0.19564	0.080672	0	0	-0.211527	-0.0870739	-0.194111	-0.274334	-0.0150196	-0.561773	0.442911	1.1834	0	0	-0.195981	-0.440471	0.444111	0.69504	0.534617	0	0
1.21	0.270568	1.43864	-1.82652	0.977097	-0.0586739	0.965424	0.38081	-0.145001	-0.0563432	1.16882	-0.0310493	0	0	-0.0997404	0.0926373	-0.200889	0.187348	0.0836986	0	0	-0.212638	-0.083432	-0.202853	-0.268094	-0.0142361	-0.559423	0.440492	1.18183	0	0	-0.192083	-0.441234	0.447018	0.693543	0.53425	0	0
1.22	0.254175	1.43998	-1.803	0.97851	-0.0661712	0.965538	0.3864	-0.142906	-0.0626839	1.13239	-0.0203196	0	0	-0.112099	0.0912493	-0.191914	0.179474	0.0868058	0	0	-0.213151	-0.0800592	-0.210011	-0.261774	-0.013605	-0.557539	0.437326	1.18093	0	0	-0.187314	-0.441608	0.451456	0.690496	0.534224	0	0
1.23	0.238627	1.4414	-1.78085	0.979831	-0.0736575	0.965553	0.390915	-0.141031	-0.06951	1.0936	-0.0108642	0	0	-0.12416	0.08984	-0.182964	0.171736	0.0895845	0	0	-0.21337	-0.0768718	-0.215303	-0.255703	-0.0127465	-0.557246	0.433747	1.18116	0	0	-0.180944	-0.441944	0.458996	0.686114	0.532858	0	0
1.24	0.22456	1.44291	-1.76071	0.981058	-0.0811077	0.96544	0.394614	-0.139509	-0.0769355	1.05279	-0.00282533	0	0	-0.135723	0.0885612	-0.174348	0.164262	0.0921952	0	0	-0.213563	-0.0739206	-0.219493	-0.249503	-0.0119248	-0.557628	0.430116	1.18153	0	0	-0.174289	-0.442177	0.464821	0.68303	0.531916	0	0
1.25	0.213245	1.4447	-1.74425	0.982205	-0.0885643	0.965183	0.397854	-0.138315	-0.0845875	1.01046	0.00307943	0	0	-0.146732	0.0877134	-0.166234	0.156875	0.0947061	0	0	-0.213228	-0.0712359	-0.222552	-0.243579	-0.0116677	-0.556247	0.42741	1.1792	0	0	-0.166899	-0.442131	0.471116	0.679752	0.530259	0	0
1.26	0.202268	1.44673	-1.72898	0.983287	-0.096046	0.964821	0.400517	-0.137084	-0.092601	0.966614	0.00715512	0	0	-0.15731	0.0868261	-0.15871	0.149982	0.0973179	0	0	-0.21256	-0.0685022	-0.224277	-0.238132	-0.0118924	-0.553884	0.425172	1.17649	0	0	-0.15856	-0.441853	0.479039	0.675879	0.527978	0	0
1.27	0.189391	1.44889	-1.71233	0.984305	-0.103573	0.96437	0.402392	-0.135507	-0.101366	0.921394	0.0101066	0	0	-0.167697	0.0858173	-0.15132	0.143126	0.0997434	0	0	-0.211717	-0.0654763	-0.225127	-0.232806	-0.0124623	-0.552071	0.42282	1.17413	0	0	-0.149702	-0.44116	0.48743	0.671732	0.525539	0	0
1.28	0.173621	1.45066	-1.69327	0.985209	-0.111168	0.963874	0.40278	-0.13345	-0.110981	0.874808	0.0120899	0	0	-0.178415	0.0842608	-0.144706	0.136921	0.102777	0	0	-0.211213	-0.0621721	-0.225258	-0.228127	-0.0134389	-0.548655	0.421239	1.17015	0	0	-0.141054	-0.440004	0.49438	0.667879	0.524637	0	0
1.29	0.157235	1.45217	-1.67396	0.986028	-0.118833	0.963296	0.401992	-0.131284	-0.121734	0.827252	0.013522	0	0	-0.189359	0.0825865	-0.138578	0.13094	0.105931	0	0	-0.210894	-0.0588514	-0.224948	-0.22403	-0.014608	-0.54454	0.420593	1.16577	0	0	-0.132877	-0.438125	0.498417	0.664299	0.526385	0	0
1.3	0.139801	1.45346	-1.65387	0.986794	-0.126573	0.962624	0.400304	-0.129046	-0.13384	0.779293	0.0146713	0	0	-0.200606	0.0809359	-0.132552	0.124705	0.108518	0	0	-0.210787	-0.0553948	-0.223881	-0.220524	-0.0159006	-0.540536	0.421004	1.16077	0	0	-0.124646	-0.435742	0.500634	0.661362	0.530033	0	0
1.31	0.121102	1.45476	-1.63293	0.987477	-0.134392	0.961857	0.398475	-0.126546	-0.146743	0.731918	0.0157197	0	0	-0.21174	0.079151	-0.127119	0.118704	0.111716	0	0	-0.210491	-0.0518618	-0.222153	-0.217475	-0.0171842	-0.537615	0.421583	1.15611	0	0	-0.115724	-0.433961	0.506592	0.658518	0.531186	0	0
